<svg width="28" height="24" viewBox="0 0 28 24" fill="none" xmlns="http://www.w3.org/2000/svg">
<path d="M5.40212 1L4.5 2.5M5.40212 1L9.71252 8.33333M5.40212 1H13.9541M22.5062 1L27 8.33333M22.5062 1L18.4709 8.33333M22.5062 1H13.9541M27 8.33333L13.9541 23M27 8.33333H18.4709M13.9541 23L1 8.33333M13.9541 23L9.71252 8.33333M13.9541 23L18.4709 8.33333M1 8.33333L2.83422 5.17083M1 8.33333H9.71252M9.71252 8.33333L13.9541 1M9.71252 8.33333H13.9541M18.4709 8.33333L13.9541 1M18.4709 8.33333H17.1411" stroke="#0077B6" stroke-width="2" stroke-linecap="round" stroke-linejoin="round"/>
</svg>
