<svg width="11" height="11" viewBox="0 0 11 11" fill="none" xmlns="http://www.w3.org/2000/svg">
<g clip-path="url(#clip0)">
<path d="M9.03559 5.50036C8.81861 5.50036 8.64273 5.67624 8.64273 5.89322V9.82172C8.64273 10.0387 8.46684 10.2146 8.24987 10.2146H1.17856C0.961582 10.2146 0.785696 10.0387 0.785696 9.82172V1.96469C0.785696 1.74771 0.961582 1.57183 1.17856 1.57183H5.89278C6.10975 1.57183 6.28564 1.39594 6.28564 1.17897C6.28564 0.961995 6.10975 0.786133 5.89278 0.786133H1.17856C0.527657 0.786133 0 1.31379 0 1.96469V9.82172C0 10.4726 0.527657 11.0003 1.17856 11.0003H8.24989C8.90079 11.0003 9.42845 10.4726 9.42845 9.82172V5.89319C9.42845 5.67624 9.25256 5.50036 9.03559 5.50036Z" fill="#0077B6"/>
<path d="M10.5596 0.440537C10.2776 0.158421 9.89496 -3.9822e-05 9.49603 6.2153e-06C9.09686 -0.00114472 8.71388 0.157592 8.43259 0.440791L3.25791 5.61502C3.21498 5.65827 3.1826 5.71085 3.16324 5.76862L2.37754 8.12573C2.30897 8.33159 2.42026 8.55404 2.62612 8.62259C2.66606 8.6359 2.70788 8.64269 2.74996 8.64273C2.79213 8.64266 2.83405 8.6359 2.8741 8.62271L5.23122 7.83701C5.28911 7.81768 5.34171 7.78513 5.38482 7.74194L10.5595 2.5673C11.1468 1.98005 11.1469 1.02786 10.5596 0.440537Z" fill="#0077B6"/>
</g>
<defs>
<clipPath id="clip0">
<rect width="11" height="11" fill="white"/>
</clipPath>
</defs>
</svg>
