<svg width="12" height="19" viewBox="0 0 12 19" fill="none" xmlns="http://www.w3.org/2000/svg">
<path d="M11.8193 5.55469L6.40084 0.153627C6.17349 -0.0512089 5.82966 -0.0512089 5.60231 0.153627L0.183878 5.52598C0.00860374 5.70904 -0.0468551 5.97717 0.0413005 6.2155C0.13153 6.44711 0.338573 6.61181 0.583171 6.64645H3.14978V13.2829C3.14935 13.5844 3.3916 13.8291 3.69089 13.8295C3.70066 13.8295 3.71043 13.8293 3.72015 13.8287H8.28306C8.58192 13.8446 8.83694 13.6134 8.85266 13.3124C8.85315 13.3025 8.85343 13.2927 8.85343 13.2829V6.64639H11.42C11.6646 6.61175 11.8717 6.44706 11.9619 6.21544C12.0451 5.98597 11.9896 5.72868 11.8193 5.55469ZM8.28301 5.49723C7.9693 5.49723 7.71264 5.61215 7.71264 5.92818V12.6796H4.29046V5.92818C4.29046 5.61215 4.0338 5.49723 3.72009 5.49723H1.98051L6.00155 1.5326L10.0226 5.49723H8.28301Z" fill="#0077B6"/>
<path d="M8.283 14.4033H3.72008C3.40507 14.4033 3.14972 14.6606 3.14972 14.9779C3.14972 15.2952 3.40507 15.5525 3.72008 15.5525H8.283C8.59801 15.5525 8.85337 15.2952 8.85337 14.9779C8.85337 14.6606 8.59801 14.4033 8.283 14.4033Z" fill="#0077B6"/>
<path d="M8.283 16.127H3.72008C3.40507 16.127 3.14972 16.3842 3.14972 16.7015C3.14972 17.0189 3.40507 17.2761 3.72008 17.2761H8.283C8.59801 17.2761 8.85337 17.0189 8.85337 16.7015C8.85337 16.3842 8.59801 16.127 8.283 16.127Z" fill="#0077B6"/>
<path d="M8.283 17.8506H3.72008C3.40507 17.8506 3.14972 18.1078 3.14972 18.4252C3.14972 18.7425 3.40507 18.9998 3.72008 18.9998H8.283C8.59801 18.9998 8.85337 18.7425 8.85337 18.4252C8.85337 18.1078 8.59801 17.8506 8.283 17.8506Z" fill="#0077B6"/>
</svg>
